<svg width="19" height="19" viewBox="0 0 19 19" fill="none" xmlns="http://www.w3.org/2000/svg">
<path d="M16.8469 6.15948L7.84692 15.1595C7.76854 15.2381 7.67539 15.3006 7.57283 15.3431C7.47027 15.3857 7.36032 15.4076 7.24927 15.4076C7.13822 15.4076 7.02826 15.3857 6.9257 15.3431C6.82314 15.3006 6.73 15.2381 6.65161 15.1595L2.71411 11.222C2.63562 11.1435 2.57337 11.0503 2.53089 10.9478C2.48841 10.8452 2.46655 10.7353 2.46655 10.6243C2.46655 10.5133 2.48841 10.4034 2.53089 10.3009C2.57337 10.1983 2.63562 10.1052 2.71411 10.0267C2.7926 9.94818 2.88577 9.88593 2.98832 9.84345C3.09086 9.80097 3.20077 9.77911 3.31177 9.77911C3.42276 9.77911 3.53267 9.80097 3.63522 9.84345C3.73776 9.88593 3.83094 9.94818 3.90942 10.0267L7.24997 13.3672L15.653 4.96557C15.8115 4.80707 16.0265 4.71802 16.2507 4.71802C16.4748 4.71802 16.6898 4.80707 16.8483 4.96557C17.0068 5.12408 17.0959 5.33907 17.0959 5.56323C17.0959 5.7874 17.0068 6.00238 16.8483 6.16089L16.8469 6.15948Z" fill="#373737"/>
</svg>
