<svg width="38" height="38" viewBox="0 0 38 38" fill="none" xmlns="http://www.w3.org/2000/svg">
<g clip-path="url(#clip0_45_311)">
<path d="M19 3.42519C24.0766 3.42519 24.6777 3.44746 26.6742 3.53652C28.5297 3.61816 29.5316 3.92988 30.1996 4.18965C31.0828 4.53105 31.7211 4.94668 32.3816 5.60722C33.0496 6.27519 33.4578 6.90605 33.7992 7.78926C34.059 8.45722 34.3707 9.4666 34.4523 11.3146C34.5414 13.3186 34.5637 13.9197 34.5637 18.9889C34.5637 24.0654 34.5414 24.6666 34.4523 26.6631C34.3707 28.5186 34.059 29.5205 33.7992 30.1885C33.4578 31.0717 33.0422 31.71 32.3816 32.3705C31.7137 33.0385 31.0828 33.4467 30.1996 33.7881C29.5316 34.0479 28.5223 34.3596 26.6742 34.4412C24.6703 34.5303 24.0691 34.5525 19 34.5525C13.9234 34.5525 13.3223 34.5303 11.3258 34.4412C9.47031 34.3596 8.46836 34.0479 7.80039 33.7881C6.91719 33.4467 6.27891 33.0311 5.61836 32.3705C4.95039 31.7025 4.54219 31.0717 4.20078 30.1885C3.94102 29.5205 3.6293 28.5111 3.54766 26.6631C3.45859 24.6592 3.43633 24.058 3.43633 18.9889C3.43633 13.9123 3.45859 13.3111 3.54766 11.3146C3.6293 9.45918 3.94102 8.45722 4.20078 7.78926C4.54219 6.90605 4.95781 6.26777 5.61836 5.60722C6.28633 4.93925 6.91719 4.53105 7.80039 4.18965C8.46836 3.92988 9.47774 3.61816 11.3258 3.53652C13.3223 3.44746 13.9234 3.42519 19 3.42519ZM19 0.00370789C13.8418 0.00370789 13.1961 0.0259735 11.1699 0.115036C9.15117 0.204099 7.76328 0.530661 6.56094 0.998239C5.30664 1.48808 4.24531 2.13379 3.19141 3.19511C2.13008 4.24902 1.48438 5.31035 0.994531 6.55722C0.526953 7.76699 0.200391 9.14746 0.111328 11.1662C0.0222656 13.1998 0 13.8455 0 19.0037C0 24.1619 0.0222656 24.8076 0.111328 26.8338C0.200391 28.8525 0.526953 30.2404 0.994531 31.4428C1.48438 32.6971 2.13008 33.7584 3.19141 34.8123C4.24531 35.8662 5.30664 36.5193 6.55352 37.0018C7.76328 37.4693 9.14375 37.7959 11.1625 37.885C13.1887 37.974 13.8344 37.9963 18.9926 37.9963C24.1508 37.9963 24.7965 37.974 26.8227 37.885C28.8414 37.7959 30.2293 37.4693 31.4316 37.0018C32.6785 36.5193 33.7398 35.8662 34.7938 34.8123C35.8477 33.7584 36.5008 32.6971 36.9832 31.4502C37.4508 30.2404 37.7773 28.86 37.8664 26.8412C37.9555 24.815 37.9777 24.1693 37.9777 19.0111C37.9777 13.8529 37.9555 13.2072 37.8664 11.1811C37.7773 9.1623 37.4508 7.77441 36.9832 6.57207C36.5156 5.31035 35.8699 4.24902 34.8086 3.19511C33.7547 2.14121 32.6934 1.48808 31.4465 1.00566C30.2367 0.538083 28.8563 0.21152 26.8375 0.122458C24.8039 0.0259735 24.1582 0.00370789 19 0.00370789Z" fill="#373737"/>
<path d="M19 9.24023C13.6117 9.24023 9.24023 13.6117 9.24023 19C9.24023 24.3883 13.6117 28.7598 19 28.7598C24.3883 28.7598 28.7598 24.3883 28.7598 19C28.7598 13.6117 24.3883 9.24023 19 9.24023ZM19 25.3309C15.5043 25.3309 12.6691 22.4957 12.6691 19C12.6691 15.5043 15.5043 12.6691 19 12.6691C22.4957 12.6691 25.3309 15.5043 25.3309 19C25.3309 22.4957 22.4957 25.3309 19 25.3309Z" fill="#373737"/>
<path d="M31.4242 8.85423C31.4242 10.116 30.4 11.1328 29.1457 11.1328C27.884 11.1328 26.8672 10.1085 26.8672 8.85423C26.8672 7.59251 27.8914 6.57571 29.1457 6.57571C30.4 6.57571 31.4242 7.59993 31.4242 8.85423Z" fill="#373737"/>
</g>
<defs>
<clipPath id="clip0_45_311">
<rect width="38" height="38" fill="white"/>
</clipPath>
</defs>
</svg>
