<svg width="49" height="48" viewBox="0 0 49 48" fill="none" xmlns="http://www.w3.org/2000/svg">
<path d="M27.5 3H21.5C18.3185 3.00347 15.2682 4.26887 13.0186 6.51856C10.7689 8.76824 9.50347 11.8185 9.5 15V33C9.50347 36.1815 10.7689 39.2318 13.0186 41.4814C15.2682 43.7311 18.3185 44.9965 21.5 45H27.5C30.6815 44.9965 33.7318 43.7311 35.9814 41.4814C38.2311 39.2318 39.4965 36.1815 39.5 33V15C39.4965 11.8185 38.2311 8.76824 35.9814 6.51856C33.7318 4.26887 30.6815 3.00347 27.5 3ZM36.5 33C36.4975 35.3862 35.5485 37.6739 33.8612 39.3612C32.1739 41.0485 29.8862 41.9975 27.5 42H21.5C19.1138 41.9975 16.8261 41.0485 15.1388 39.3612C13.4515 37.6739 12.5025 35.3862 12.5 33V15C12.5025 12.6138 13.4515 10.3261 15.1388 8.63878C16.8261 6.95149 19.1138 6.00248 21.5 6H27.5C29.8862 6.00248 32.1739 6.95149 33.8612 8.63878C35.5485 10.3261 36.4975 12.6138 36.5 15V33ZM26 12V21C26 21.3978 25.842 21.7794 25.5607 22.0607C25.2794 22.342 24.8978 22.5 24.5 22.5C24.1022 22.5 23.7206 22.342 23.4393 22.0607C23.158 21.7794 23 21.3978 23 21V12C23 11.6022 23.158 11.2206 23.4393 10.9393C23.7206 10.658 24.1022 10.5 24.5 10.5C24.8978 10.5 25.2794 10.658 25.5607 10.9393C25.842 11.2206 26 11.6022 26 12Z" fill="#FF7043"/>
</svg>
